<svg width="73" height="73" viewBox="0 0 73 73" fill="none" xmlns="http://www.w3.org/2000/svg">
<circle cx="36.5" cy="36.5" r="35.5" stroke="#F6DC24" stroke-width="2"/>
<path d="M34.5779 30.2084C34.657 30.6998 34.7001 31.2057 34.7001 31.6537C34.7001 32.2318 34.657 32.7377 34.5779 33.2291L36.1735 34.66C36.6767 35.1152 36.8851 35.7729 36.6192 36.4666C36.4539 36.7846 36.2742 37.2254 36.0729 37.5867L35.8501 37.977C35.5698 38.3383 35.3973 38.6852 35.1457 39.0248C34.736 39.574 34.0173 39.7547 33.3704 39.5379L31.3364 38.8658C30.5673 39.509 29.6904 40.0221 28.7345 40.3834L28.2385 42.4791C28.1595 43.1512 27.642 43.6859 26.9664 43.7727C26.4848 43.8305 25.996 43.8594 25.5001 43.8594C25.0042 43.8594 24.5154 43.8305 24.0339 43.7727C23.3582 43.6859 22.776 43.1512 22.697 42.4791L22.201 40.3834C21.3098 40.0221 20.4329 39.509 19.6603 38.8658L17.632 39.5379C16.9858 39.7547 16.2656 39.574 15.8559 39.0248C15.6015 38.6852 15.3643 38.3311 15.1458 37.9697L14.9287 37.5867C14.7282 37.2254 14.5458 36.8496 14.3828 36.4666C14.1165 35.7729 14.3205 35.1152 14.8281 34.66L16.4223 33.2291C16.3418 32.7377 16.2354 32.2318 16.2354 31.6537C16.2354 31.2057 16.3418 30.6998 16.4223 30.2084L14.8281 28.7775C14.3205 28.2572 14.1165 27.5996 14.3828 26.9709C14.5458 26.5229 14.7282 26.2114 14.928 25.8479L15.1465 25.4685C15.3643 25.1036 15.6015 24.7509 15.8559 24.412C16.2656 23.8664 16.9858 23.685 17.632 23.8989L19.6603 24.571C20.4329 23.9321 21.3098 23.4176 22.201 23.0577L22.697 20.957C22.776 20.2863 23.3582 19.7494 24.0339 19.6671C24.5154 19.6083 25.0042 19.5781 25.5001 19.5781C25.996 19.5781 26.4848 19.6083 26.9664 19.667C27.642 19.7494 28.1595 20.2863 28.2385 20.957L28.7345 23.0577C29.6904 23.4176 30.5673 23.9321 31.3364 24.571L33.3704 23.8989C34.0173 23.685 34.736 23.8664 35.1457 24.412C35.3973 24.7495 35.5698 25.1007 35.8501 25.4634L36.0729 25.8529C36.2742 26.215 36.4539 26.5879 36.6192 26.9709C36.8851 27.5996 36.6767 28.2572 36.1735 28.7775L34.5779 30.2084ZM25.5001 28.185C23.5954 28.185 22.0501 29.8037 22.0501 31.6537C22.0501 33.6338 23.5954 35.1225 25.5001 35.1225C27.4048 35.1225 28.9501 33.6338 28.9501 31.6537C28.9501 29.8037 27.4048 28.185 25.5001 28.185ZM48.8523 53.5646C48.3635 53.6441 47.8604 53.6875 47.3501 53.6875C46.8398 53.6875 46.3367 53.6441 45.8479 53.5646L44.4248 55.1689C43.9073 55.6748 43.2532 55.8844 42.6279 55.617C42.247 55.4508 41.8732 55.2701 41.5139 55.0678L41.1257 54.8438C40.7664 54.5619 40.4214 54.3885 40.0835 54.1355C39.5373 53.7236 39.3576 53.001 39.5732 52.3506L40.2417 50.3055C39.602 49.5322 39.0917 48.6506 38.7323 47.6895L36.6479 47.1908C35.9795 47.1113 35.4476 46.591 35.3614 45.9117C35.3039 45.4275 35.2751 44.9361 35.2751 44.4375C35.2751 43.9389 35.3039 43.4475 35.3614 42.9633C35.4476 42.284 35.9795 41.6986 36.6479 41.6191L38.7323 41.1205C39.0917 40.2244 39.602 39.3428 40.2417 38.5695L39.5732 36.5244C39.3576 35.874 39.5373 35.1514 40.0835 34.7395C40.4214 34.4865 40.7736 34.183 41.1329 34.024L41.5139 33.8072C41.8732 33.6049 42.1823 33.4242 42.6279 33.258C43.2532 32.9906 43.9073 33.2002 44.4248 33.7061L45.8479 35.3104C46.3367 35.2309 46.8398 35.1875 47.3501 35.1875C47.8604 35.1875 48.3635 35.2309 48.8523 35.3104L50.2754 33.7061C50.7282 33.2002 51.3823 32.9906 52.0723 33.258C52.4532 33.4242 52.827 33.6049 53.1864 33.8072L53.5673 34.024C53.9267 34.183 54.2789 34.4865 54.6167 34.7395C55.1629 35.1514 55.3426 35.874 55.127 36.5244L54.4585 38.5695C55.0982 39.3428 55.6086 40.2244 55.9679 41.1205L58.0523 41.6191C58.7207 41.6986 59.2526 42.284 59.3389 42.9633C59.3964 43.4475 59.4251 43.9389 59.4251 44.4375C59.4251 44.9361 59.3964 45.4275 59.3389 45.9117C59.2526 46.591 58.7207 47.1113 58.0523 47.1908L55.9679 47.6895C55.6086 48.6506 55.0982 49.5322 54.4585 50.3055L55.127 52.3506C55.3426 53.001 55.1629 53.7236 54.6167 54.1355C54.2789 54.3885 53.9339 54.5619 53.5745 54.8438L53.1864 55.0678C52.827 55.2701 52.3885 55.4508 52.0723 55.617C51.3823 55.8844 50.7282 55.6748 50.2754 55.1689L48.8523 53.5646ZM50.8001 44.4375C50.8001 42.5225 49.2548 40.9688 47.3501 40.9688C45.4454 40.9688 43.9001 42.5225 43.9001 44.4375C43.9001 46.3525 45.4454 47.9062 47.3501 47.9062C49.2548 47.9062 50.8001 46.3525 50.8001 44.4375Z" fill="#F6DC24"/>
</svg>
