<svg width="73" height="73" viewBox="0 0 73 73" fill="none" xmlns="http://www.w3.org/2000/svg">
<circle cx="36.5" cy="36.5" r="35.5" stroke="#F6DC24" stroke-width="2"/>
<path d="M49 15H25C22.865 15 21 16.8796 21 19.0312V53.9688C21 56.1188 22.865 58 25 58H49C51.135 58 53 56.1204 53 53.9688V19.0312C53 16.8796 51.1333 15 49 15ZM26.3333 32.4688C26.3333 31.7297 26.9333 31.125 27.6667 31.125H30.3333C31.0667 31.125 31.6667 31.7297 31.6667 32.4688V35.1562C31.6667 35.8953 31.0667 36.5 30.3333 36.5H27.6667C26.9333 36.5 26.3333 35.8953 26.3333 35.1562V32.4688ZM26.3333 40.5312C26.3333 39.7922 26.9333 39.1875 27.6667 39.1875H30.3333C31.0667 39.1875 31.6667 39.7922 31.6667 40.5312V43.2188C31.6667 43.9578 31.0667 44.5625 30.3333 44.5625H27.6667C26.9333 44.5625 26.3333 43.9578 26.3333 43.2188V40.5312ZM39.6667 51.2812C39.6667 52.0204 39.0667 52.625 38.3333 52.625H27.6667C26.9333 52.625 26.3333 52.0203 26.3333 51.2812V48.5938C26.3333 47.8547 26.9333 47.25 27.6667 47.25H38.3333C39.0667 47.25 39.6667 47.8546 39.6667 48.5938V51.2812ZM39.6667 43.2188C39.6667 43.9579 39.0667 44.5625 38.3333 44.5625H35.6667C34.9333 44.5625 34.3333 43.9578 34.3333 43.2188V40.5312C34.3333 39.7922 34.9333 39.1875 35.6667 39.1875H38.3333C39.0667 39.1875 39.6667 39.7922 39.6667 40.5312V43.2188ZM39.6667 35.1562C39.6667 35.8953 39.0667 36.5 38.3333 36.5H35.6667C34.9333 36.5 34.3333 35.8953 34.3333 35.1562V32.4688C34.3333 31.7297 34.9333 31.125 35.6667 31.125H38.3333C39.0667 31.125 39.6667 31.7297 39.6667 32.4688V35.1562ZM47.6667 51.2812C47.6667 52.0204 47.0668 52.625 46.3333 52.625H43.6667C42.9334 52.625 42.3333 52.0204 42.3333 51.2812V48.5938C42.3333 47.8546 42.9334 47.25 43.6667 47.25H46.3333C47.0668 47.25 47.6667 47.8546 47.6667 48.5938V51.2812ZM47.6667 43.2188C47.6667 43.9579 47.0668 44.5625 46.3333 44.5625H43.6667C42.9334 44.5625 42.3333 43.9579 42.3333 43.2188V40.5312C42.3333 39.7922 42.9333 39.1875 43.6667 39.1875H46.3333C47.0667 39.1875 47.6667 39.7922 47.6667 40.5312V43.2188ZM47.6667 35.1562C47.6667 35.8953 47.0667 36.5 46.3333 36.5H43.6667C42.9333 36.5 42.3333 35.8953 42.3333 35.1562V32.4688C42.3333 31.7297 42.9333 31.125 43.6667 31.125H46.3333C47.0667 31.125 47.6667 31.7297 47.6667 32.4688V35.1562ZM47.6667 27.0938C47.6667 27.8328 47.0667 28.4375 46.3333 28.4375H27.6667C26.9333 28.4375 26.3333 27.8328 26.3333 27.0938V21.7188C26.3333 20.9797 26.9333 20.375 27.6667 20.375H46.3333C47.0667 20.375 47.6667 20.9797 47.6667 21.7188V27.0938Z" fill="#F6DC24"/>
</svg>
