<svg width="73" height="73" viewBox="0 0 73 73" fill="none" xmlns="http://www.w3.org/2000/svg">
<path d="M37.0117 48L35.0566 42.4492H27.4141L25.459 48H22L29.4375 27.9297H33.0742L40.498 48H37.0117ZM34.209 39.6328L32.3086 34.1641C32.2357 33.9271 32.1309 33.5944 31.9941 33.166C31.8574 32.7285 31.7207 32.2865 31.584 31.8398C31.4473 31.3841 31.3333 31.0013 31.2422 30.6914C31.151 31.0651 31.0371 31.4844 30.9004 31.9492C30.7728 32.4049 30.6452 32.8333 30.5176 33.2344C30.3991 33.6354 30.3079 33.9453 30.2441 34.1641L28.3301 39.6328H34.209ZM47.9815 32.8652V48H44.7686V32.8652H47.9815ZM46.3955 27.0684C46.8877 27.0684 47.3116 27.2005 47.667 27.4648C48.0316 27.7292 48.2139 28.1849 48.2139 28.832C48.2139 29.4701 48.0316 29.9258 47.667 30.1992C47.3116 30.4635 46.8877 30.5957 46.3955 30.5957C45.8851 30.5957 45.4522 30.4635 45.0967 30.1992C44.7504 29.9258 44.5772 29.4701 44.5772 28.832C44.5772 28.1849 44.7504 27.7292 45.0967 27.4648C45.4522 27.2005 45.8851 27.0684 46.3955 27.0684Z" fill="#F6DC24"/>
<circle cx="36.5" cy="36.5" r="35.5" stroke="#F6DC24" stroke-width="2"/>
</svg>
