<svg width="73" height="73" viewBox="0 0 73 73" fill="none" xmlns="http://www.w3.org/2000/svg">
<circle cx="36.5" cy="36.5" r="35.5" stroke="#F6DC24" stroke-width="2"/>
<path d="M47.776 40.3574C47.3722 40.3574 46.9774 40.2392 46.6417 40.0177C46.3059 39.7962 46.0442 39.4814 45.8897 39.1131C45.7352 38.7448 45.6947 38.3395 45.7735 37.9485C45.8523 37.5575 46.0467 37.1984 46.3323 36.9165C46.6178 36.6346 46.9816 36.4426 47.3776 36.3649C47.7737 36.2871 48.1842 36.327 48.5573 36.4796C48.9303 36.6321 49.2492 36.8905 49.4735 37.2219C49.6979 37.5534 49.8176 37.9431 49.8176 38.3418C49.8176 38.8763 49.6025 39.389 49.2196 39.767C48.8367 40.145 48.3174 40.3574 47.776 40.3574ZM25.224 40.3574C24.8202 40.3574 24.4255 40.2392 24.0898 40.0177C23.754 39.7962 23.4923 39.4814 23.3378 39.1131C23.1833 38.7448 23.1428 38.3395 23.2216 37.9485C23.3004 37.5575 23.4948 37.1984 23.7804 36.9165C24.0659 36.6346 24.4297 36.4426 24.8257 36.3649C25.2218 36.2871 25.6323 36.327 26.0054 36.4796C26.3784 36.6321 26.6973 36.8905 26.9216 37.2219C27.146 37.5534 27.2657 37.9431 27.2657 38.3418C27.2657 38.8763 27.0506 39.389 26.6677 39.767C26.2848 40.145 25.7655 40.3574 25.224 40.3574ZM48.5076 28.2233L52.5858 21.2526C52.6507 21.1572 52.695 21.0496 52.7161 20.9365C52.7371 20.8234 52.7344 20.7073 52.7082 20.5953C52.6819 20.4833 52.6326 20.3778 52.5634 20.2853C52.4942 20.1929 52.4064 20.1155 52.3057 20.0579C52.2049 20.0003 52.0932 19.9637 51.9775 19.9504C51.8619 19.9372 51.7447 19.9475 51.6332 19.9808C51.5217 20.014 51.4184 20.0695 51.3295 20.1439C51.2407 20.2182 51.1682 20.3097 51.1166 20.4128L46.9874 27.4733C43.689 26.0129 40.1149 25.2578 36.5 25.2578C32.8851 25.2578 29.311 26.0129 26.0126 27.4733L21.8834 20.4128C21.8318 20.3097 21.7593 20.2182 21.6705 20.1439C21.5816 20.0695 21.4783 20.014 21.3668 19.9808C21.2553 19.9475 21.1381 19.9372 21.0225 19.9504C20.9068 19.9637 20.7951 20.0003 20.6943 20.0579C20.5936 20.1155 20.5058 20.1929 20.4366 20.2853C20.3674 20.3778 20.3181 20.4833 20.2918 20.5953C20.2656 20.7073 20.2629 20.8234 20.2839 20.9365C20.305 21.0496 20.3493 21.1572 20.4142 21.2526L24.4924 28.2233C17.4895 31.9833 12.701 38.9817 12 47.25H61C60.299 38.9817 55.5096 31.9833 48.5076 28.2233Z" fill="#F6DC24"/>
</svg>
