<svg width="73" height="73" viewBox="0 0 73 73" fill="none" xmlns="http://www.w3.org/2000/svg">
<path d="M41.125 42.2812C41.125 42.9204 40.6079 43.4375 39.9688 43.4375H33.0312C32.3953 43.4375 31.875 42.9172 31.875 42.2812V38.8125H18V49.2188C18 51.0687 19.6195 52.6875 21.4688 52.6875H51.5312C53.3805 52.6875 55 51.068 55 49.2188V38.8125H41.125V42.2812ZM51.5312 24.9375H45.75V21.4688C45.75 19.6195 44.1313 18 42.2812 18H30.7188C28.8687 18 27.25 19.6195 27.25 21.4688V24.9375H21.4688C19.6195 24.9375 18 26.5562 18 28.4062V36.5H55V28.4062C55 26.5562 53.3812 24.9375 51.5312 24.9375ZM42.2812 24.9375H30.7188V21.4688H42.2812V24.9375Z" fill="#F6DC24"/>
<circle cx="36.5" cy="36.5" r="35.5" stroke="#F6DC24" stroke-width="2"/>
</svg>
