<svg width="73" height="73" viewBox="0 0 73 73" fill="none" xmlns="http://www.w3.org/2000/svg">
<circle cx="36.5" cy="36.5" r="35.5" stroke="#F6DC24" stroke-width="2"/>
<path d="M28.1277 31.0225C27.4441 31.0225 26.8338 31.1689 26.2967 31.4619C25.7596 31.7451 25.3006 32.1602 24.9197 32.707C24.5389 33.2539 24.2459 33.9229 24.0408 34.7139C23.8455 35.4951 23.7479 36.3838 23.7479 37.3799C23.7479 38.7275 23.9188 39.8604 24.2605 40.7783C24.6023 41.6963 25.1199 42.3896 25.8133 42.8584C26.5164 43.3271 27.3953 43.5615 28.45 43.5615C29.407 43.5615 30.325 43.4297 31.2039 43.166C32.0926 42.9023 32.9861 42.585 33.8846 42.2139V47.1064C32.9373 47.5264 31.9656 47.8291 30.9695 48.0146C29.9832 48.2002 28.9334 48.293 27.8201 48.293C25.4959 48.293 23.5916 47.834 22.1072 46.916C20.6326 45.9883 19.5438 44.7041 18.8406 43.0635C18.1473 41.4229 17.8006 39.5186 17.8006 37.3506C17.8006 35.7295 18.0252 34.2451 18.4744 32.8975C18.9334 31.5498 19.6023 30.3828 20.4813 29.3965C21.3602 28.4004 22.4441 27.6338 23.7332 27.0967C25.032 26.5498 26.5164 26.2764 28.1863 26.2764C29.2215 26.2764 30.3104 26.3984 31.4529 26.6426C32.6053 26.877 33.7283 27.2578 34.8221 27.7852L33.0496 32.3408C32.2684 31.9697 31.4773 31.6572 30.6766 31.4033C29.8758 31.1494 29.0262 31.0225 28.1277 31.0225ZM53.1232 36.0908L52.6838 38.5518H56.2434V42.2725H51.9953L50.9113 48H46.9855L48.0549 42.2725H45.5939L44.5539 48H40.6428L41.6975 42.2725H38.4016V38.5518H42.4152L42.8693 36.0908H39.383V32.2822H43.5871L44.6418 26.584H48.5676L47.4836 32.2822H49.9152L50.9699 26.584H54.8957L53.8264 32.2822H57.1809V36.0908H53.1232ZM46.3264 38.5518H48.7434L49.1975 36.0908H46.7658L46.3264 38.5518Z" fill="#F6DC24"/>
</svg>
