<svg width="73" height="73" viewBox="0 0 73 73" fill="none" xmlns="http://www.w3.org/2000/svg">
<circle cx="36.5" cy="36.5" r="35.5" stroke="#F6DC24" stroke-width="2"/>
<path d="M54.8052 30.3648C55.0501 31.0031 54.8423 31.723 54.3377 32.1906L51.124 35.1148C51.2056 35.7309 51.2501 36.3617 51.2501 37C51.2501 37.6383 51.2056 38.2691 51.124 38.8852L54.3377 41.8094C54.8423 42.277 55.0501 42.9969 54.8052 43.6352C54.4787 44.5184 54.0853 45.3719 53.64 46.1809L53.2912 46.782C52.8013 47.5984 52.2521 48.3703 51.6509 49.1051C51.2056 49.632 50.4857 49.8176 49.8326 49.6098L45.6986 48.2887C44.7041 49.0531 43.5388 49.6914 42.433 50.1813L41.5052 54.4191C41.3568 55.0871 40.8373 55.5621 40.1544 55.7402C39.1302 55.9109 38.0763 56 36.9334 56C35.924 56 34.8701 55.9109 33.8459 55.7402C33.163 55.5621 32.6435 55.0871 32.4951 54.4191L31.5673 50.1813C30.3947 49.6914 29.2962 49.0531 28.3017 48.2887L24.1707 49.6098C23.5146 49.8176 22.791 49.632 22.3516 49.1051C21.7497 48.3703 21.2005 47.5984 20.7106 46.782L20.3633 46.1809C19.9128 45.3719 19.5209 44.5184 19.1921 43.6352C18.9516 42.9969 19.1543 42.277 19.6634 41.8094L22.8741 38.8852C22.7925 38.2691 22.7502 37.6383 22.7502 37C22.7502 36.3617 22.7925 35.7309 22.8741 35.1148L19.6634 32.1906C19.1543 31.723 18.9516 31.0105 19.1921 30.3648C19.5209 29.4816 19.9135 28.6281 20.3633 27.8191L20.7099 27.218C21.2005 26.4016 21.7497 25.6297 22.3516 24.8986C22.791 24.368 23.5146 24.1839 24.1707 24.3932L28.3017 25.7113C29.2962 24.9439 30.3947 24.3056 31.5673 23.821L32.4951 19.5831C32.6435 18.9092 33.163 18.3741 33.8459 18.2605C34.8701 18.0891 35.924 18 37.0002 18C38.0763 18 39.1302 18.0891 40.1544 18.2605C40.8373 18.3741 41.3568 18.9092 41.5052 19.5831L42.433 23.821C43.5388 24.3056 44.7041 24.9439 45.6986 25.7113L49.8326 24.3932C50.4857 24.1839 51.2056 24.368 51.6509 24.8986C52.2521 25.6297 52.8013 26.4016 53.2912 27.218L53.64 27.8191C54.0853 28.6281 54.4787 29.4816 54.8052 30.3648ZM37.0002 42.9375C40.2806 42.9375 42.9376 40.2805 42.9376 36.9332C42.9376 33.7195 40.2806 30.9957 37.0002 30.9957C33.7197 30.9957 31.0627 33.7195 31.0627 36.9332C31.0627 40.2805 33.7197 42.9375 37.0002 42.9375Z" fill="#F6DC24"/>
</svg>
