<svg width="73" height="73" viewBox="0 0 73 73" fill="none" xmlns="http://www.w3.org/2000/svg">
<circle cx="36.5" cy="36.5" r="35.5" stroke="#F6DC24" stroke-width="2"/>
<path d="M48.7082 38.2402C48.6889 34.6563 50.2884 31.9512 53.5259 29.959C51.7144 27.332 48.9779 25.8867 45.3647 25.6035C41.9441 25.3301 38.2055 27.625 36.8373 27.625C35.392 27.625 32.0774 25.7012 29.4759 25.7012C24.0993 25.7891 18.3855 30.0469 18.3855 38.709C18.3855 41.2676 18.848 43.9108 19.773 46.6387C21.0063 50.2227 25.4579 59.0117 30.1022 58.8652C32.5303 58.8066 34.2454 57.1172 37.4058 57.1172C40.4699 57.1172 42.0597 58.8652 44.7673 58.8652C49.4501 58.7969 53.4777 50.8086 54.6532 47.2148C48.3709 44.2168 48.7082 38.4258 48.7082 38.2402ZM43.2545 22.2051C45.885 19.041 45.6441 16.1602 45.567 15.125C43.2449 15.2617 40.5566 16.7266 39.0246 18.5332C37.3384 20.4668 36.3459 22.8594 36.5579 25.5547C39.0727 25.75 41.366 24.4414 43.2545 22.2051Z" fill="#F6DC24"/>
</svg>
