<svg width="73" height="73" viewBox="0 0 73 73" fill="none" xmlns="http://www.w3.org/2000/svg">
<circle cx="36.5" cy="36.5" r="35.5" stroke="#F6DC24" stroke-width="2"/>
<path d="M43.6143 41.0729C44.4565 40.536 45.6252 40.0713 45.6252 40.0713C45.6252 40.0713 42.2994 40.6322 38.9908 40.8886C34.9432 41.2011 30.5947 41.2652 28.4119 40.9928C23.2471 40.3517 31.2479 38.5808 31.2479 38.5808C31.2479 38.5808 28.1455 38.3885 24.3213 40.1033C19.8096 42.1386 35.4932 43.0682 43.6143 41.0729ZM36.2752 38.5007C34.6424 35.0791 29.1338 32.0742 36.2752 26.8176C45.1835 20.263 40.6151 16 40.6151 16C42.4627 22.771 34.1182 24.8224 31.1018 29.0293C29.0479 31.9059 32.1072 34.991 36.2752 38.5007ZM46.1236 24.3817C46.1322 24.3817 31.0674 27.8914 38.2604 35.616C40.383 37.8917 37.7018 39.9431 37.7018 39.9431C37.7018 39.9431 43.0901 37.3468 40.6151 34.1015C38.3033 31.0726 36.533 29.5661 46.1236 24.3817ZM45.5994 46.057C45.5525 46.1334 45.4946 46.2035 45.4276 46.2654C56.4533 43.565 52.3971 36.7378 47.1291 38.4687C46.8446 38.5661 46.5988 38.7423 46.4244 38.9735C46.732 38.8697 47.0482 38.7893 47.3697 38.7331C50.0338 38.2122 53.858 42.0585 45.5994 46.057ZM49.6522 51.0492C49.6522 51.0492 50.8983 52.0027 48.2858 52.7479C43.3101 54.1502 27.5921 54.5749 23.2265 52.804C21.6538 52.171 24.6015 51.2816 25.5296 51.0973C26.4921 50.9049 27.0507 50.937 27.0507 50.937C25.3062 49.7911 15.7671 53.1887 22.2038 54.1582C39.7557 56.8186 54.2069 52.9643 49.6522 51.0492ZM30.4401 47.7318C23.6768 49.4946 34.5565 53.1326 43.1674 49.695C42.3276 49.3907 41.5169 49.0208 40.744 48.5892C36.9026 49.2703 35.1236 49.3184 31.6346 48.9497C28.7557 48.6453 30.4401 47.7318 30.4401 47.7318ZM45.8916 55.5205C39.1283 56.7064 30.7838 56.5702 25.8424 55.8089C25.8424 55.8009 26.8565 56.5862 32.0643 56.8987C39.9877 57.3715 52.1565 56.6343 52.44 53.1406C52.44 53.1406 51.89 54.4627 45.8916 55.5205ZM42.1447 44.2861C37.0572 45.1996 34.1096 45.1756 30.3885 44.815C27.5096 44.5345 29.3916 43.2364 29.3916 43.2364C21.9322 45.5442 33.5338 48.1565 43.958 45.3118C43.2843 45.09 42.667 44.7408 42.1447 44.2861Z" fill="#FED430"/>
</svg>
