<svg width="73" height="73" viewBox="0 0 73 73" fill="none" xmlns="http://www.w3.org/2000/svg">
<circle cx="36.5" cy="36.5" r="35.5" stroke="#F6DC24" stroke-width="2"/>
<path d="M22.6346 55.7236C21.9803 55.7236 21.409 55.6895 20.9207 55.6211C20.4227 55.5625 19.993 55.4941 19.6316 55.416V50.9189C19.9441 50.9775 20.2762 51.041 20.6277 51.1094C20.9793 51.1875 21.3602 51.2266 21.7703 51.2266C22.4637 51.2266 23.0008 51.085 23.3816 50.8018C23.7723 50.5186 24.0457 50.0938 24.202 49.5273C24.3582 48.9609 24.4363 48.2529 24.4363 47.4033V27.584H30.2518V46.9053C30.2518 49.0537 29.9295 50.7725 29.285 52.0615C28.6404 53.3506 27.7469 54.2832 26.6043 54.8594C25.4617 55.4355 24.1385 55.7236 22.6346 55.7236ZM50.9992 42.4961C50.9992 43.6582 50.7063 44.7617 50.1203 45.8066C49.5344 46.8418 48.6213 47.6816 47.3811 48.3262C46.1506 48.9707 44.5588 49.293 42.6057 49.293C41.6291 49.293 40.7697 49.249 40.0275 49.1611C39.2951 49.0732 38.6115 48.9316 37.9768 48.7363C37.342 48.5312 36.6828 48.2676 35.9992 47.9453V42.7891C37.1613 43.375 38.3332 43.8242 39.5148 44.1367C40.6965 44.4395 41.7658 44.5908 42.7229 44.5908C43.299 44.5908 43.7678 44.5225 44.1291 44.3857C44.5002 44.249 44.7736 44.0635 44.9494 43.8291C45.1252 43.585 45.2131 43.3066 45.2131 42.9941C45.2131 42.623 45.0813 42.3105 44.8176 42.0566C44.5637 41.793 44.1535 41.5195 43.5871 41.2363C43.0207 40.9531 42.2736 40.6016 41.3459 40.1816C40.5549 39.8105 39.8371 39.4297 39.1926 39.0391C38.5578 38.6484 38.0109 38.2041 37.552 37.7061C37.1027 37.1982 36.7561 36.6074 36.5119 35.9336C36.2678 35.2598 36.1457 34.4639 36.1457 33.5459C36.1457 32.1689 36.4826 31.0166 37.1564 30.0889C37.84 29.1514 38.7873 28.4482 39.9982 27.9795C41.2189 27.5107 42.6252 27.2764 44.217 27.2764C45.6135 27.2764 46.8684 27.4326 47.9816 27.7451C49.1047 28.0576 50.1105 28.4141 50.9992 28.8145L49.2268 33.2822C48.3088 32.8623 47.4055 32.5303 46.5168 32.2861C45.6281 32.0322 44.8029 31.9053 44.0412 31.9053C43.5432 31.9053 43.133 31.9688 42.8107 32.0957C42.4982 32.2129 42.2639 32.374 42.1076 32.5791C41.9611 32.7842 41.8879 33.0186 41.8879 33.2822C41.8879 33.6143 42.0148 33.9121 42.2688 34.1758C42.5324 34.4395 42.967 34.7275 43.5725 35.04C44.1877 35.3428 45.0227 35.7383 46.0773 36.2266C47.1223 36.6953 48.0109 37.2031 48.7434 37.75C49.4758 38.2871 50.0324 38.9365 50.4133 39.6982C50.8039 40.4502 50.9992 41.3828 50.9992 42.4961Z" fill="#F6DC24"/>
</svg>
