<svg width="73" height="73" viewBox="0 0 73 73" fill="none" xmlns="http://www.w3.org/2000/svg">
<path d="M36.5 23.7764C50.6941 23.7764 61.6088 29.8401 61.6088 36.5C61.6088 43.16 50.6858 49.2237 36.5 49.2237C22.3059 49.2237 11.3913 43.16 11.3913 36.5C11.3913 29.8401 22.3142 23.7764 36.5 23.7764ZM36.5 22.3655C21.867 22.3655 10 28.6895 10 36.5C10 44.3106 21.867 50.6346 36.5 50.6346C51.133 50.6346 63 44.3106 63 36.5C63 28.6895 51.133 22.3655 36.5 22.3655ZM28.0697 35.3663C27.4155 38.7676 25.105 38.4149 22.2645 38.4149L23.3991 32.4856C26.5459 32.4856 28.6825 32.1413 28.0697 35.3663ZM18.0659 44.4198H21.1052L21.8256 40.6573C25.2292 40.6573 27.3409 40.9092 29.2953 39.0532C31.4567 37.0375 32.0198 33.4514 30.4795 31.6541C29.6763 30.7135 28.3844 30.2516 26.6288 30.2516H20.7739L18.0659 44.4198ZM33.4442 26.4807H36.4669L35.7464 30.2432C38.355 30.2432 40.7731 30.05 41.9408 31.1418C43.1664 32.284 42.5784 33.7454 41.2534 40.6405H38.1894C39.4647 33.9721 39.7048 33.4178 39.2411 32.9139C38.7939 32.4268 37.7753 32.5276 35.3158 32.5276L33.7589 40.6405H30.7362L33.4442 26.4807ZM51.8203 35.3663C51.1578 38.818 48.7811 38.4149 46.0152 38.4149L47.1497 32.4856C50.3131 32.4856 52.4331 32.1413 51.8203 35.3663ZM41.8166 44.4198H44.8641L45.5845 40.6573C49.162 40.6573 51.1413 40.8672 53.0542 39.0532C55.2156 37.0375 55.7788 33.4514 54.2384 31.6541C53.4352 30.7135 52.1433 30.2516 50.3877 30.2516H44.5328L41.8166 44.4198Z" fill="#F6DC24"/>
<circle cx="36.5" cy="36.5" r="35.5" stroke="#F6DC24" stroke-width="2"/>
</svg>
