<svg width="73" height="73" viewBox="0 0 73 73" fill="none" xmlns="http://www.w3.org/2000/svg">
<circle cx="36.5" cy="36.5" r="35.5" stroke="#F6DC24" stroke-width="2"/>
<path d="M27.4355 28.0117C30.015 28.0117 31.8971 28.5404 33.082 29.5977C34.2669 30.6549 34.8594 32.1361 34.8594 34.041C34.8594 34.9069 34.7227 35.7318 34.4492 36.5156C34.1849 37.2904 33.7474 37.9785 33.1367 38.5801C32.526 39.1725 31.7194 39.6419 30.7168 39.9883C29.7233 40.3346 28.4974 40.5078 27.0391 40.5078H24.9062V48H21.625V28.0117H27.4355ZM27.2168 30.7324H24.9062V37.7734H26.6973C27.7272 37.7734 28.6022 37.6549 29.3223 37.418C30.0423 37.1719 30.5892 36.7845 30.9629 36.2559C31.3366 35.7272 31.5234 35.0299 31.5234 34.1641C31.5234 33.0065 31.1725 32.1452 30.4707 31.5801C29.778 31.015 28.6934 30.7324 27.2168 30.7324ZM52.3506 42.5586C52.3506 43.7435 52.059 44.7643 51.4756 45.6211C50.9014 46.4779 50.072 47.1341 48.9873 47.5898C47.9118 48.0456 46.6267 48.2734 45.1319 48.2734C44.4027 48.2734 43.7054 48.2324 43.0401 48.1504C42.3747 48.0684 41.7458 47.9499 41.1534 47.7949C40.57 47.6309 40.0368 47.4349 39.5537 47.207V44.1172C40.3649 44.4727 41.2718 44.7962 42.2745 45.0879C43.2771 45.3704 44.2979 45.5117 45.337 45.5117C46.1846 45.5117 46.8864 45.4023 47.4424 45.1836C48.0075 44.9557 48.4268 44.6367 48.7002 44.2266C48.9737 43.8073 49.1104 43.3197 49.1104 42.7637C49.1104 42.1712 48.9509 41.6699 48.6319 41.2598C48.3129 40.8496 47.8298 40.4759 47.1827 40.1387C46.5446 39.7923 45.7426 39.4232 44.7764 39.0312C44.1202 38.7669 43.4912 38.4661 42.8897 38.1289C42.2972 37.7917 41.7686 37.3952 41.3037 36.9395C40.8389 36.4837 40.4698 35.946 40.1963 35.3262C39.932 34.6973 39.7998 33.959 39.7998 33.1113C39.7998 31.9811 40.0687 31.015 40.6065 30.2129C41.1534 29.4108 41.919 28.7956 42.9034 28.3672C43.8968 27.9388 45.0544 27.7246 46.376 27.7246C47.4242 27.7246 48.4086 27.834 49.3291 28.0527C50.2588 28.2715 51.1703 28.5814 52.0635 28.9824L51.0245 31.6211C50.2041 31.2839 49.4066 31.015 48.6319 30.8145C47.8662 30.6139 47.0824 30.5137 46.2803 30.5137C45.5876 30.5137 44.9997 30.6185 44.5166 30.8281C44.0336 31.0378 43.6644 31.334 43.4092 31.7168C43.1631 32.0905 43.0401 32.5371 43.0401 33.0566C43.0401 33.64 43.1814 34.1322 43.4639 34.5332C43.7556 34.9251 44.2022 35.2852 44.8037 35.6133C45.4144 35.9414 46.1983 36.306 47.1553 36.707C48.2582 37.1628 49.1924 37.6413 49.958 38.1426C50.7328 38.6439 51.3252 39.2454 51.7354 39.9473C52.1455 40.64 52.3506 41.5104 52.3506 42.5586Z" fill="#F6DC24"/>
</svg>
