<svg width="73" height="73" viewBox="0 0 73 73" fill="none" xmlns="http://www.w3.org/2000/svg">
<g clip-path="url(#clip0_142_30)">
<path d="M43.1656 21.8679L34.1656 53.3686C33.8211 54.5639 32.5766 55.253 31.3813 54.9155C30.1859 54.571 29.4969 53.3264 29.8344 52.1311L38.8344 20.6318C39.1789 19.4369 40.4234 18.7451 41.6187 19.0865C42.8141 19.4279 43.5031 20.6733 43.1656 21.8679ZM50.4641 27.5358L58.3391 35.4108C59.218 36.2897 59.218 37.71 58.3391 38.5889L50.4641 46.4639C49.5852 47.3428 48.1648 47.3428 47.2859 46.4639C46.407 45.585 46.407 44.1647 47.2859 43.2858L53.5648 36.9999L47.2859 30.7139C46.407 29.835 46.407 28.4147 47.2859 27.5358C48.1648 26.6569 49.5852 26.6569 50.4641 27.5358ZM25.7141 30.7139L19.4316 36.9999L25.7141 43.2858C26.593 44.1647 26.593 45.585 25.7141 46.4639C24.8352 47.3428 23.4148 47.3428 22.5359 46.4639L14.659 38.5889C13.7803 37.71 13.7803 36.2897 14.659 35.4108L22.5359 27.5358C23.4148 26.6569 24.8352 26.6569 25.7141 27.5358C26.593 28.4147 26.593 29.835 25.7141 30.7139Z" fill="#FED430"/>
</g>
<circle cx="36.5" cy="36.5" r="35.5" stroke="#F6DC24" stroke-width="2"/>
<defs>
<clipPath id="clip0_142_30">
<rect width="45" height="36" fill="white" transform="translate(14 19)"/>
</clipPath>
</defs>
</svg>
